<mxfile host="app.diagrams.net" modified="2020-09-27T15:56:44.486Z" agent="5.0 (Windows NT 10.0; Win64; x64) AppleWebKit/537.36 (KHTML, like Gecko) Chrome/85.0.4183.121 Safari/537.36" etag="CZBLKwyj57NwwHRIAewa" version="13.7.5" type="github">
  <diagram id="Vg5ggc6k8YS9u8jVxWCW" name="Page-1">
    <mxGraphModel dx="1393" dy="773" grid="1" gridSize="10" guides="1" tooltips="1" connect="1" arrows="1" fold="1" page="1" pageScale="1" pageWidth="827" pageHeight="1169" math="0" shadow="0">
      <root>
        <mxCell id="0" />
        <mxCell id="1" parent="0" />
        <mxCell id="y0Ciqf4_ylRcGxNX1VVL-1" value="&lt;b&gt;&lt;font style=&quot;font-size: 17px&quot;&gt;Главное окно&lt;/font&gt;&lt;/b&gt;" style="rounded=0;whiteSpace=wrap;html=1;" vertex="1" parent="1">
          <mxGeometry x="329" y="240" width="166" height="60" as="geometry" />
        </mxCell>
        <mxCell id="y0Ciqf4_ylRcGxNX1VVL-4" value="" style="endArrow=classic;html=1;" edge="1" parent="1">
          <mxGeometry width="50" height="50" relative="1" as="geometry">
            <mxPoint x="412" y="300" as="sourcePoint" />
            <mxPoint x="412" y="400" as="targetPoint" />
          </mxGeometry>
        </mxCell>
        <mxCell id="y0Ciqf4_ylRcGxNX1VVL-5" value="&lt;b&gt;&lt;font style=&quot;font-size: 16px&quot;&gt;Окно справки&lt;/font&gt;&lt;/b&gt;" style="rounded=0;whiteSpace=wrap;html=1;" vertex="1" parent="1">
          <mxGeometry x="327" y="400" width="170" height="60" as="geometry" />
        </mxCell>
        <mxCell id="y0Ciqf4_ylRcGxNX1VVL-6" value="" style="endArrow=none;html=1;" edge="1" parent="1">
          <mxGeometry width="50" height="50" relative="1" as="geometry">
            <mxPoint x="199" y="270" as="sourcePoint" />
            <mxPoint x="330" y="270" as="targetPoint" />
          </mxGeometry>
        </mxCell>
        <mxCell id="y0Ciqf4_ylRcGxNX1VVL-7" value="" style="endArrow=classic;html=1;" edge="1" parent="1">
          <mxGeometry width="50" height="50" relative="1" as="geometry">
            <mxPoint x="199" y="270" as="sourcePoint" />
            <mxPoint x="199" y="400" as="targetPoint" />
          </mxGeometry>
        </mxCell>
        <mxCell id="y0Ciqf4_ylRcGxNX1VVL-8" value="" style="endArrow=none;html=1;" edge="1" parent="1">
          <mxGeometry width="50" height="50" relative="1" as="geometry">
            <mxPoint x="496" y="270" as="sourcePoint" />
            <mxPoint x="639" y="270" as="targetPoint" />
          </mxGeometry>
        </mxCell>
        <mxCell id="y0Ciqf4_ylRcGxNX1VVL-9" value="" style="endArrow=classic;html=1;" edge="1" parent="1">
          <mxGeometry width="50" height="50" relative="1" as="geometry">
            <mxPoint x="639" y="270" as="sourcePoint" />
            <mxPoint x="639" y="400" as="targetPoint" />
          </mxGeometry>
        </mxCell>
        <mxCell id="y0Ciqf4_ylRcGxNX1VVL-10" value="&lt;b&gt;&lt;font style=&quot;font-size: 15px&quot;&gt;Окно сохранения/загрузки файла&lt;/font&gt;&lt;/b&gt;" style="rounded=0;whiteSpace=wrap;html=1;" vertex="1" parent="1">
          <mxGeometry x="119" y="400" width="160" height="60" as="geometry" />
        </mxCell>
        <mxCell id="y0Ciqf4_ylRcGxNX1VVL-11" value="&lt;b&gt;&lt;font style=&quot;font-size: 14px&quot;&gt;Окно с сообщением об ошибке&lt;/font&gt;&lt;/b&gt;" style="rounded=0;whiteSpace=wrap;html=1;" vertex="1" parent="1">
          <mxGeometry x="560" y="400" width="150" height="60" as="geometry" />
        </mxCell>
      </root>
    </mxGraphModel>
  </diagram>
</mxfile>
